<svg width="30" height="30" viewBox="0 0 29 29" fill="none" xmlns="http://www.w3.org/2000/svg">
  <path
     fill="#ffffff" stroke="none" stroke-width="0"
     d="m 29.746425,24.895016 c 0,0 -9.267013,-12.786232 -13.162136,-18.0759981 C 14.706332,4.2686613 11.254503,2.9498821 10.178718,3.5723581 8.4573044,4.5684111 8.7515283,6.6324642 8.950252,8.2229793 c 0.2057716,1.6469236 2.610832,5.4472897 3.246659,4.7383687 0.89386,-0.996615 -0.876475,-3.4654508 0.438737,-4.124136 0.942946,-0.472253 1.67542,0.8364942 2.018195,1.754952 0.605728,1.623034 -0.460728,4.280019 0.526485,5.703591 2.565405,3.69934 8.774757,12.63565 8.774757,12.63565 l 5.66231,0.309713 z"
  />
  <path
     fill="#00ffff" stroke="none" stroke-width="0"
     d="M 10.154995,13.18268 C 11.621457,11.597842 13.122626,8.2859666 11.070608,7.9339092 9.0185789,7.5819175 9.2239067,11.157102 10.154995,13.18268 Z"
  />
  <path
     ifill="#00ffff" stroke="none" stroke-width="0"
     d="m 11.22029,14.007746 c 2.10574,0.47758 5.724493,0.121687 5.003375,-1.831442 -0.721181,-1.953104 -3.714717,0.01231 -5.003375,1.831442 z"
  />
  <path
     fill="#00ffff" stroke="none" stroke-width="0"
     d="m 11.038409,15.34285 c 0.639273,2.062415 2.756863,5.018401 4.087763,3.41733 1.330848,-1.601113 -1.868016,-3.210886 -4.087763,-3.41733 z"
  />
  <path
     fill="#00ffff" stroke="none" stroke-width="0"
     d="M 9.7912344,15.852891 C 8.3247681,17.437724 6.8236036,20.749605 8.8756217,21.10166 10.92765,21.453658 10.722323,17.878469 9.7912344,15.852891 Z"
  />
  <path
     fill="#00ffff" stroke="none" stroke-width="0"
     d="m 8.7259396,15.027825 c -2.1057392,-0.47758 -5.724494,-0.121687 -5.0033744,1.831442 0.7211808,1.953105 3.7147157,-0.01231 5.0033744,-1.831442 z"
     style="fill:#00ffff;stroke:none;stroke-width:1.05332px;stroke-linecap:butt;stroke-linejoin:miter;stroke-opacity:1"
  />
  <path
     fill="#00ffff" stroke="none" stroke-width="0"
     d="M 8.90782,13.692719 C 8.2685465,11.630306 6.1509569,8.6743185 4.820058,10.275391 3.4892098,11.876504 6.6880718,13.486277 8.90782,13.692719 Z"
  />
</svg>
