<svg width="35" height="35" viewBox="3 3 24 24" fill="none" xmlns="http://www.w3.org/2000/svg">
  <path
    fill="#ffffff" stroke-width="0"
    d="m 14.948382,9.4251438 c -3.043878,0.01816 -5.501799,2.4909122 -5.501646,5.5348442 -9.8e-5,3.05685 2.477993,5.534943 5.534843,5.534845 3.05685,9.8e-5 5.534943,-2.477995 5.534844,-5.534845 9.9e-5,-3.05685 -2.477994,-5.5349412 -5.534844,-5.5348442 -0.01105,-3.3e-5 -0.02213,-3.3e-5 -0.0332,0 z m 0.0218,1.9717122 c 1.761252,-0.0039 3.647236,1.120878 3.629532,3.563132 -0.0177,2.442255 -1.414525,3.672843 -3.618128,3.67312 -2.203602,2.78e-4 -3.442456,-1.606897 -3.45415,-3.67312 -0.01169,-2.066222 1.681493,-3.559221 3.442746,-3.563132 z"
  />
  <path
    fill="#ffffff" stroke-width="0"
    d="m 18.078368,19.151561 c -0.406951,-0.53781 0.417719,-1.33302 0.96189,-0.916126 l 4.524866,3.466545 c 0.509061,0.389996 0.202176,1.375816 -0.246087,1.806214 -0.557912,0.535677 -1.436105,0.737721 -1.78043,0.216312 z"
  />
  <path
    fill="#ffffff" stroke-width="0"
    d="m -15.579132,17.758957 5.298179,4.825521 5.2981762,-4.825521 -5.2981762,1.770833 z"
  />
  <path
    fill="#ffffff" stroke-width="0"
    d="m -9.1530011,14.729731 4.825521,-5.2981772 -4.825521,-5.2981757 1.770833,5.2981757 z"
  />
  <path
    fill="#ffffff" stroke-width="0"
    d="m 6.6297476,12.923673 -3.4166435,2.036303 3.4166435,2.036303 v -2.036303 z"
  />
  <path
    fill="#ffffff" stroke-width="0"
    d="m 23.333411,12.923673 3.416643,2.036303 -3.416643,2.036303 v -2.036303 z"
  />
  <path
    fill="#ffffff" stroke-width="0"
    d="m 17.017882,6.5325497 -2.036304,-3.279978 -2.036302,3.279978 h 2.036302 z" />
  <path
    fill="#ffffff" stroke-width="0"
    d="m 17.017882,23.304548 -2.036304,3.416643 -2.036302,-3.416643 h 2.036302 z"
  />
</svg>
